<?xml version="1.0" encoding="UTF-8"?>
<svg width="366px" height="85px" viewBox="0 0 366 85" version="1.1" xmlns="http://www.w3.org/2000/svg" xmlns:xlink="http://www.w3.org/1999/xlink">
    <!-- Generator: Sketch 51.3 (57544) - http://www.bohemiancoding.com/sketch -->
    <title>sprite</title>
    <desc>Created with Sketch.</desc>
    <defs>
        <path d="M15.6646636,14.8067685 C15.3774,15.4705756 15.0373736,16.0816066 14.643412,16.6433797 C14.1064048,17.4092207 13.6667155,17.9393282 13.3278616,18.233702 C12.8025795,18.7168973 12.2397772,18.9643589 11.6371098,18.9784326 C11.2044555,18.9784326 10.6826909,18.8552882 10.0753334,18.6054809 C9.46598271,18.3568464 8.90599443,18.233702 8.3939616,18.233702 C7.85695442,18.233702 7.28102008,18.3568464 6.66498608,18.6054809 C6.04801407,18.8552882 5.5509893,18.9854694 5.17098051,18.9983702 C4.59305291,19.0229991 4.01700132,18.7685007 3.44200498,18.233702 C3.07501099,17.9135265 2.61597538,17.3646542 2.06607064,16.5870851 C1.47606625,15.7567398 0.991001026,14.7938677 0.610992232,13.6961231 C0.204015829,12.5104182 0,11.362243 0,10.2506593 C0,8.97734596 0.275069617,7.87913224 0.826029606,6.95883289 C1.25903561,6.21961449 1.83508721,5.63649631 2.55606038,5.20842283 C3.27703356,4.78034935 4.05604573,4.56220779 4.89497289,4.54825143 C5.3540085,4.54825143 5.95597245,4.690278 6.70403049,4.96940536 C7.44997802,5.24947097 7.92894621,5.39149754 8.13894181,5.39149754 C8.2959402,5.39149754 8.82802286,5.22542849 9.73003078,4.8943459 C10.583028,4.5873058 11.3029459,4.46017384 11.8927158,4.51025257 C13.4908398,4.63926102 14.6914847,5.26940864 15.4899604,6.40468297 C14.0606771,7.27091605 13.3536567,8.48418185 13.3677268,10.0406101 C13.3806244,11.2529377 13.8203136,12.2617837 14.6844497,13.0628089 C15.0760662,13.4345878 15.5134105,13.7219248 16,13.9259927 C15.8944746,14.2320945 15.7830866,14.5252956 15.6646636,14.8067685 Z M11.9994137,0.380105796 C11.9994137,1.33032337 11.6523523,2.21753792 10.9605745,3.03873532 C10.1257511,4.01497742 9.11599003,4.57909617 8.02098784,4.49008034 C8.00703503,4.37608379 7.99894475,4.25610593 7.99894475,4.1300295 C7.99894475,3.2178225 8.39595486,2.2415804 9.10098197,1.44336996 C9.4529679,1.03922168 9.90063022,0.70317813 10.4434999,0.435110306 C10.9851971,0.171041744 11.4975817,0.0250041826 11.9794812,0 C11.9935512,0.127026408 11.9994137,0.254064544 11.9994137,0.380094068 L11.9994137,0.380105796 Z" id="path-1"></path>
        <path d="M15.6646636,14.8067685 C15.3774,15.4705756 15.0373736,16.0816066 14.643412,16.6433797 C14.1064048,17.4092207 13.6667155,17.9393282 13.3278616,18.233702 C12.8025795,18.7168973 12.2397772,18.9643589 11.6371098,18.9784326 C11.2044555,18.9784326 10.6826909,18.8552882 10.0753334,18.6054809 C9.46598271,18.3568464 8.90599443,18.233702 8.3939616,18.233702 C7.85695442,18.233702 7.28102008,18.3568464 6.66498608,18.6054809 C6.04801407,18.8552882 5.5509893,18.9854694 5.17098051,18.9983702 C4.59305291,19.0229991 4.01700132,18.7685007 3.44200498,18.233702 C3.07501099,17.9135265 2.61597538,17.3646542 2.06607064,16.5870851 C1.47606625,15.7567398 0.991001026,14.7938677 0.610992232,13.6961231 C0.204015829,12.5104182 0,11.362243 0,10.2506593 C0,8.97734596 0.275069617,7.87913224 0.826029606,6.95883289 C1.25903561,6.21961449 1.83508721,5.63649631 2.55606038,5.20842283 C3.27703356,4.78034935 4.05604573,4.56220779 4.89497289,4.54825143 C5.3540085,4.54825143 5.95597245,4.690278 6.70403049,4.96940536 C7.44997802,5.24947097 7.92894621,5.39149754 8.13894181,5.39149754 C8.2959402,5.39149754 8.82802286,5.22542849 9.73003078,4.8943459 C10.583028,4.5873058 11.3029459,4.46017384 11.8927158,4.51025257 C13.4908398,4.63926102 14.6914847,5.26940864 15.4899604,6.40468297 C14.0606771,7.27091605 13.3536567,8.48418185 13.3677268,10.0406101 C13.3806244,11.2529377 13.8203136,12.2617837 14.6844497,13.0628089 C15.0760662,13.4345878 15.5134105,13.7219248 16,13.9259927 C15.8944746,14.2320945 15.7830866,14.5252956 15.6646636,14.8067685 Z M11.9994137,0.380105796 C11.9994137,1.33032337 11.6523523,2.21753792 10.9605745,3.03873532 C10.1257511,4.01497742 9.11599003,4.57909617 8.02098784,4.49008034 C8.00703503,4.37608379 7.99894475,4.25610593 7.99894475,4.1300295 C7.99894475,3.2178225 8.39595486,2.2415804 9.10098197,1.44336996 C9.4529679,1.03922168 9.90063022,0.70317813 10.4434999,0.435110306 C10.9851971,0.171041744 11.4975817,0.0250041826 11.9794812,0 C11.9935512,0.127026408 11.9994137,0.254064544 11.9994137,0.380094068 L11.9994137,0.380105796 Z" id="path-2"></path>
    </defs>
    <g id="Page-1" stroke="none" stroke-width="1" fill="none" fill-rule="evenodd">
        <g id="sprite" transform="translate(1.000000, 1.000000)">
            <g id="social-icons2">
                <g id="Youtube" transform="translate(197.916667, 1.083333)" stroke="#000000">
                    <circle id="Oval-Copy" cx="18.75" cy="18.75" r="18.75"></circle>
                </g>
                <g id="Deezer" transform="translate(131.250000, 0.000000)" stroke="#000000">
                    <circle id="Oval-Copy" cx="19.4172297" cy="19.4172297" r="19.4172297"></circle>
                </g>
                <g id="Soundcloud" transform="translate(263.000000, 1.000000)" stroke="#000000">
                    <circle id="Oval-Copy" cx="18.75" cy="18.75" r="18.75"></circle>
                </g>
                <g id="Apple-m" transform="translate(327.000000, 1.000000)" stroke="#000000">
                    <circle id="Oval-Copy" cx="18.75" cy="18.75" r="18.75"></circle>
                    <g id="Apple_logo_black" transform="translate(10.083333, 9.000000)" fill-rule="nonzero">
                        <g id="Shape">
                            <use xlink:href="#path-1"></use>
                            <path d="M16.1255352,15.0006691 L16.1235388,15.0053475 C15.8233175,15.6990969 15.4669158,16.3399241 15.0527972,16.9304403 C14.4967873,17.7233816 14.0336292,18.282903 13.6663655,18.6016899 C13.0558131,19.1633235 12.379158,19.4612404 11.6371098,19.4784326 C11.1292848,19.4784326 10.5450963,19.3393359 9.88643711,19.068426 C9.33521013,18.8435079 8.83793205,18.733702 8.3939616,18.733702 C7.92352171,18.733702 7.4100514,18.8439573 6.85263441,19.0689333 C6.18744575,19.3382631 5.6371536,19.4828323 5.19226912,19.4979168 C4.46769372,19.5287952 3.76734737,19.2191374 3.11330206,18.6104703 C2.70983433,18.2584742 2.22789778,17.6818508 1.65848559,16.8766959 C1.03946867,16.0055197 0.533223144,14.9999312 0.138074229,13.8584455 C-0.286622391,12.6211136 -0.5,11.4184511 -0.5,10.2506593 C-0.5,8.88987829 -0.202361303,7.70320427 0.394596893,6.70611602 C0.870277637,5.89404425 1.50685613,5.24988951 2.30079292,4.77849432 C3.09474297,4.30709127 3.95854267,4.06376067 4.89497289,4.04825143 C5.42118266,4.04825143 6.07468569,4.20090048 6.87977665,4.50130998 C7.56725371,4.75942288 8.01534196,4.89149754 8.13894181,4.89149754 C8.20683864,4.89149754 8.74305743,4.72399747 9.56069003,4.42389536 C10.4745652,4.09494196 11.2635018,3.95502526 11.9329474,4.01187378 C13.675159,4.15251369 15.0119416,4.85590877 15.898935,6.11703771 L16.206866,6.55485455 L15.7491115,6.83228178 C14.4683048,7.60852895 13.8552598,8.65925581 13.8676985,10.0352911 C13.8791451,11.1112347 14.2616591,11.9891215 15.0286993,12.7001904 C15.3771976,13.0310352 15.7636308,13.2846725 16.1933748,13.4649003 L16.6253762,13.6460748 L16.4726993,14.0889509 C16.3627777,14.407805 16.2473933,14.7110313 16.1255352,15.0006691 Z M12.4994137,0.380094068 L12.4994137,0.380105796 C12.4994137,1.45206365 12.1085686,2.45204577 11.3405787,3.36369198 C10.3724047,4.49587419 9.21117347,5.08848331 7.98047506,4.98843636 L7.57421135,4.95541003 L7.52469151,4.5508254 C7.50773367,4.41227719 7.49894475,4.27226851 7.49894475,4.1300295 C7.49894475,3.08776657 7.94574855,1.99600758 8.72393462,1.11498711 C9.12067567,0.659451251 9.6214665,0.283391517 10.2244047,-0.0143307794 C10.8249797,-0.307101318 11.4015668,-0.470686524 11.9535727,-0.499328298 L12.4245244,-0.523764437 L12.4764419,-0.0550457653 C12.4920681,0.0860293777 12.4994137,0.230445802 12.4994137,0.380094068 Z"></path>
                        </g>
                    </g>
                </g>
                <g id="Apple-m-Copy" transform="translate(327.000000, 45.000000)">
                    <circle id="Oval-Copy" stroke="#000000" fill="#000000" cx="18.75" cy="18.75" r="18.75"></circle>
                    <g id="Apple_logo_black" transform="translate(10.083333, 9.000000)" fill-rule="nonzero" stroke="#FFFFFF">
                        <g id="Shape">
                            <use xlink:href="#path-2"></use>
                            <path d="M16.1255352,15.0006691 L16.1235388,15.0053475 C15.8233175,15.6990969 15.4669158,16.3399241 15.0527972,16.9304403 C14.4967873,17.7233816 14.0336292,18.282903 13.6663655,18.6016899 C13.0558131,19.1633235 12.379158,19.4612404 11.6371098,19.4784326 C11.1292848,19.4784326 10.5450963,19.3393359 9.88643711,19.068426 C9.33521013,18.8435079 8.83793205,18.733702 8.3939616,18.733702 C7.92352171,18.733702 7.4100514,18.8439573 6.85263441,19.0689333 C6.18744575,19.3382631 5.6371536,19.4828323 5.19226912,19.4979168 C4.46769372,19.5287952 3.76734737,19.2191374 3.11330206,18.6104703 C2.70983433,18.2584742 2.22789778,17.6818508 1.65848559,16.8766959 C1.03946867,16.0055197 0.533223144,14.9999312 0.138074229,13.8584455 C-0.286622391,12.6211136 -0.5,11.4184511 -0.5,10.2506593 C-0.5,8.88987829 -0.202361303,7.70320427 0.394596893,6.70611602 C0.870277637,5.89404425 1.50685613,5.24988951 2.30079292,4.77849432 C3.09474297,4.30709127 3.95854267,4.06376067 4.89497289,4.04825143 C5.42118266,4.04825143 6.07468569,4.20090048 6.87977665,4.50130998 C7.56725371,4.75942288 8.01534196,4.89149754 8.13894181,4.89149754 C8.20683864,4.89149754 8.74305743,4.72399747 9.56069003,4.42389536 C10.4745652,4.09494196 11.2635018,3.95502526 11.9329474,4.01187378 C13.675159,4.15251369 15.0119416,4.85590877 15.898935,6.11703771 L16.206866,6.55485455 L15.7491115,6.83228178 C14.4683048,7.60852895 13.8552598,8.65925581 13.8676985,10.0352911 C13.8791451,11.1112347 14.2616591,11.9891215 15.0286993,12.7001904 C15.3771976,13.0310352 15.7636308,13.2846725 16.1933748,13.4649003 L16.6253762,13.6460748 L16.4726993,14.0889509 C16.3627777,14.407805 16.2473933,14.7110313 16.1255352,15.0006691 Z M12.4994137,0.380094068 L12.4994137,0.380105796 C12.4994137,1.45206365 12.1085686,2.45204577 11.3405787,3.36369198 C10.3724047,4.49587419 9.21117347,5.08848331 7.98047506,4.98843636 L7.57421135,4.95541003 L7.52469151,4.5508254 C7.50773367,4.41227719 7.49894475,4.27226851 7.49894475,4.1300295 C7.49894475,3.08776657 7.94574855,1.99600758 8.72393462,1.11498711 C9.12067567,0.659451251 9.6214665,0.283391517 10.2244047,-0.0143307794 C10.8249797,-0.307101318 11.4015668,-0.470686524 11.9535727,-0.499328298 L12.4245244,-0.523764437 L12.4764419,-0.0550457653 C12.4920681,0.0860293777 12.4994137,0.230445802 12.4994137,0.380094068 Z"></path>
                        </g>
                    </g>
                </g>
                <g id="Spotify" transform="translate(0.000000, 1.083333)" stroke="#000000">
                    <circle id="Oval" cx="18.75" cy="18.75" r="18.75"></circle>
                    <path d="M7.95454538,12.5757578 C11.560606,10.9595962 16.0151514,10.9595962 21.3181818,12.5757578 C26.621212,14.1919194 30.121212,16.818182 31.8181818,20.4545457" id="Path-2" stroke-width="1.5" transform="translate(19.886364, 15.909091) rotate(-7.000000) translate(-19.886364, -15.909091) "></path>
                    <path d="M10.2272726,17.9545455 C12.8030302,16.7424243 15.9848483,16.7424243 19.7727271,17.9545455 C23.5606059,19.1666667 26.0606059,21.1363635 27.2727272,23.8636365" id="Path-2-Copy" stroke-width="1.5" transform="translate(18.750000, 20.454546) rotate(-7.000000) translate(-18.750000, -20.454546) "></path>
                    <path d="M10.1829231,23.9798315 C12.6619653,22.858093 15.7243114,22.858093 19.3699616,23.9798315 C23.0156118,25.1015701 25.421741,26.9243952 26.588349,29.4483069" id="Path-2-Copy-2" stroke-width="1.5" transform="translate(18.385636, 26.293417) rotate(-7.000000) translate(-18.385636, -26.293417) "></path>
                </g>
                <g id="noun_Music-Note_677344_000000" transform="translate(76.000000, 10.333333)" fill="#000000" fill-rule="nonzero">
                    <path d="M3.96025471,20.5615942 C6.14398839,20.5615942 7.92050943,19.1219642 7.92050943,17.3499493 L7.92050943,7.96906704 L15.080292,6.46380699 L15.080292,11.8518335 L14.8878728,11.8518335 C12.7041391,11.8518335 10.9276181,13.2914634 10.9276181,15.0634783 C10.9276181,16.8354934 12.7041391,18.2751232 14.8878728,18.2751232 C17.0716065,18.2751232 18.8481275,16.8354934 18.8481275,15.0634783 L18.8481275,1.42086823 C18.8485041,0.988661028 18.6399873,0.580018293 18.2820572,0.311506389 C17.926152,0.0422579382 17.4604051,-0.0597413028 17.0156707,0.0341659283 L5.59134267,2.43496044 C4.75008494,2.60846994 4.15083658,3.31393895 4.15267386,4.12864266 L4.15267386,14.1446558 L3.96025471,14.1446558 C1.77652104,14.1446558 0,15.5842856 0,17.3563006 C0,19.1283157 1.77652104,20.5615942 3.96025471,20.5615942 Z M3.96025471,15.4106832 C4.20107598,15.4102488 4.44120466,15.4351004 4.67623297,15.4847818 C4.87533722,15.5272701 5.08405567,15.4817299 5.24339233,15.3610335 C5.40272899,15.2403371 5.49537127,15.0575987 5.49513309,14.8644707 L5.49513309,4.14134527 C5.49247245,3.92038152 5.65571168,3.72863781 5.88444626,3.68405108 L17.2953497,1.28325655 C17.3439153,1.27043316 17.3960406,1.28157038 17.4340705,1.31289599 C17.4714739,1.34108958 17.4929582,1.38409272 17.4922437,1.42933664 L17.4922437,15.0592442 C17.4922437,16.128381 16.3175919,17.0006274 14.8744482,17.0006274 C13.4313045,17.0006274 12.2566527,16.1304981 12.2566527,15.0592442 C12.2566527,13.9879902 13.449204,13.1178609 14.8833979,13.1178609 C15.1242133,13.1175307 15.3643299,13.142381 15.5993762,13.1919595 C15.7984804,13.2344479 16.0071989,13.1889076 16.1665356,13.0682113 C16.3258722,12.9475148 16.4185145,12.7647764 16.4182763,12.5716484 L16.4182763,5.67201055 C16.4183621,5.47934591 16.3260187,5.29705939 16.1672344,5.1764519 C16.0084502,5.05584443 15.800392,5.00995542 15.6016136,5.05169945 L7.09937187,6.83853416 C6.79207099,6.90306818 6.57344282,7.16099589 6.57357534,7.45884528 L6.57357534,17.3520664 C6.57357534,18.4212034 5.39892352,19.2934497 3.95577984,19.2934497 C2.51263618,19.2934497 1.33798436,18.4233203 1.33798436,17.3520664 C1.33798436,16.2808124 2.51711104,15.4106832 3.96025471,15.4106832 Z" id="Shape"></path>
                </g>
                <circle id="Oval-Copy" stroke="#000000" cx="85.75" cy="19.8333333" r="18.75"></circle>
                <g id="soundcloud-social-outlined-logotype-symbol" transform="translate(270.000000, 14.000000)" fill="#000000" fill-rule="nonzero">
                    <path d="M18.7908811,4.97589255 C18.7651066,4.97340799 18.7404106,4.97045532 18.7166851,4.96797076 C18.3719471,2.15080208 16.0269019,0 13.2099719,0 C12.2069245,0 10.6532669,0.491006968 9.93409815,0.929982176 L9.69716716,1.07466287 L9.69716716,11.9762346 L18.9234201,12 C20.5334436,12 22,10.2728337 22,8.37621302 C21.9999641,6.59553859 20.6506329,5.16565544 18.7908811,4.97589255 Z M18.9243906,11.0090921 L10.6863747,10.9853267 L10.6863747,1.64740831 C11.3461939,1.32484742 12.4897966,0.990907945 13.2099719,0.990907945 C15.6356477,0.990907945 17.6358829,2.94154079 17.7640363,5.43168356 L17.7857487,5.81765479 L18.1641337,5.8924797 C18.1641337,5.8924797 18.3278393,5.92420287 18.6899041,5.96183137 C20.0560587,6.10057073 21.009714,7.09345912 21.009714,8.37570891 C21.0107206,9.70455323 19.9774412,11.0085879 18.9243906,11.0090921 Z M8.40862352,1.0013143 C8.13560109,1.0013143 7.9139838,1.22280035 7.9139838,1.49678627 L7.9139838,11.4059377 C7.9139838,11.6799237 8.13556514,11.9014097 8.40862352,11.9014097 C8.68168189,11.9014097 8.90326323,11.6799597 8.90326323,11.4059377 L8.90326323,1.49678627 C8.90326323,1.22330447 8.68168189,1.0013143 8.40862352,1.0013143 Z M6.43013655,1.99225825 C6.15711412,1.99225825 5.93549684,2.21374431 5.93549684,2.48773023 L5.93549684,11.4059738 C5.93549684,11.6799597 6.15707817,11.9014457 6.43013655,11.9014457 C6.70319493,11.9014457 6.92477627,11.6799957 6.92477627,11.4059738 L6.92477627,2.48769422 C6.92477627,2.21421241 6.70315898,1.99225825 6.43013655,1.99225825 Z M4.45164959,1.99225825 C4.17862716,1.99225825 3.95700987,2.21374431 3.95700987,2.48773023 L3.95700987,11.4059738 C3.95700987,11.6799597 4.17859121,11.9014457 4.45164959,11.9014457 C4.72470797,11.9014457 4.9462893,11.6799957 4.9462893,11.4059738 L4.9462893,2.48769422 C4.94625336,2.21421241 4.72467202,1.99225825 4.45164959,1.99225825 Z M2.47312668,3.97407414 C2.20010425,3.97407414 1.97848696,4.1955602 1.97848696,4.46954612 L1.97848696,11.4059738 C1.97848696,11.6799597 2.2000683,11.9014457 2.47312668,11.9014457 C2.74618506,11.9014457 2.96776639,11.6799957 2.96776639,11.4059738 L2.96776639,4.46954612 C2.96776639,4.1960283 2.74614911,3.97407414 2.47312668,3.97407414 Z M0.494639715,5.46045406 C0.221617285,5.46045406 0,5.68194012 0,5.95592604 L0,10.4150298 C0,10.6889797 0.221581337,10.9105018 0.494639715,10.9105018 C0.767698092,10.9105018 0.989279429,10.6890157 0.989279429,10.4150298 L0.989279429,5.95589003 C0.989243482,5.68240822 0.767662144,5.46045406 0.494639715,5.46045406 Z" id="Shape"></path>
                </g>
                <g id="deezer-logo" transform="translate(139.000000, 12.000000)" fill="#000000" fill-rule="nonzero">
                    <rect id="Rectangle-path" x="0" y="12.898541" width="4.37357334" height="1.32545899"></rect>
                    <rect id="Rectangle-path" x="0" y="11.1756405" width="4.37357334" height="1.32594936"></rect>
                    <rect id="Rectangle-path" x="0" y="9.45273993" width="4.37357334" height="1.32594936"></rect>
                    <rect id="Rectangle-path" x="0" y="7.72959421" width="4.37357334" height="1.32521381"></rect>
                    <rect id="Rectangle-path" x="0" y="6.00669367" width="4.37357334" height="1.32496862"></rect>
                    <rect id="Rectangle-path" x="4.90390404" y="12.898541" width="4.3740637" height="1.32545899"></rect>
                    <rect id="Rectangle-path" x="4.90390404" y="11.1756405" width="4.3740637" height="1.32594936"></rect>
                    <rect id="Rectangle-path" x="4.90390404" y="9.45273993" width="4.3740637" height="1.32594936"></rect>
                    <rect id="Rectangle-path" x="9.80829845" y="12.898541" width="4.3740637" height="1.32545899"></rect>
                    <rect id="Rectangle-path" x="9.80829845" y="11.1756405" width="4.3740637" height="1.32594936"></rect>
                    <rect id="Rectangle-path" x="9.80829845" y="9.45273993" width="4.3740637" height="1.32594936"></rect>
                    <rect id="Rectangle-path" x="9.80829845" y="7.72959421" width="4.3740637" height="1.32521381"></rect>
                    <rect id="Rectangle-path" x="9.80829845" y="6.00669367" width="4.3740637" height="1.32496862"></rect>
                    <rect id="Rectangle-path" x="9.80829845" y="4.28330276" width="4.3740637" height="1.32545899"></rect>
                    <rect id="Rectangle-path" x="9.80829845" y="2.56040222" width="4.3740637" height="1.32570417"></rect>
                    <rect id="Rectangle-path" x="14.7122025" y="12.898541" width="4.37430889" height="1.32545899"></rect>
                    <rect id="Rectangle-path" x="14.7122025" y="11.1756405" width="4.37430889" height="1.32594936"></rect>
                    <rect id="Rectangle-path" x="14.7122025" y="9.45273993" width="4.37430889" height="1.32594936"></rect>
                    <rect id="Rectangle-path" x="14.7122025" y="7.72959421" width="4.37430889" height="1.32521381"></rect>
                    <rect id="Rectangle-path" x="14.7122025" y="6.00669367" width="4.37430889" height="1.32496862"></rect>
                    <rect id="Rectangle-path" x="19.6165969" y="12.898541" width="4.3740637" height="1.32545899"></rect>
                    <rect id="Rectangle-path" x="19.6165969" y="11.1756405" width="4.3740637" height="1.32594936"></rect>
                    <rect id="Rectangle-path" x="19.6165969" y="9.45224956" width="4.3740637" height="1.32545899"></rect>
                    <rect id="Rectangle-path" x="19.6165969" y="7.72959421" width="4.3740637" height="1.32545899"></rect>
                    <rect id="Rectangle-path" x="19.6165969" y="6.0062033" width="4.3740637" height="1.32570417"></rect>
                    <rect id="Rectangle-path" x="19.6165969" y="4.28354794" width="4.3740637" height="1.32496862"></rect>
                    <rect id="Rectangle-path" x="19.6165969" y="2.56015704" width="4.3740637" height="1.32496862"></rect>
                    <rect id="Rectangle-path" x="19.6165969" y="0.836766129" width="4.3740637" height="1.32545899"></rect>
                </g>
                <g id="9a2327a2fcc570914ce9c9e61581cbf8" transform="translate(206.000000, 13.000000)" fill="#000000" fill-rule="nonzero">
                    <path d="M17.3318029,0 L3.66605448,0 C1.64340373,0 0,1.62942008 0,3.6301273 L0,11.3698727 C0,13.3705799 1.64340373,15 3.66605448,15 L17.3339455,15 C19.3544536,15 21,13.3705799 21,11.3698727 L21,3.6301273 C20.9978574,1.62942008 19.3544536,0 17.3318029,0 Z M20.125,11.7920755 C20.125,13.0745937 19.0866278,14.1176471 17.8121577,14.1176471 L3.19013456,14.1176471 C1.91337223,14.1176471 0.875,13.0745937 0.875,11.7920755 L0.875,3.39238736 C0.875,2.10986919 1.91337223,1.06681581 3.19013456,1.06681581 L17.8121577,1.06681581 C19.08892,1.06681581 20.125,2.10986919 20.125,3.39238736 L20.125,11.7920755 Z" id="Shape"></path>
                    <path d="M14.6648485,6.86099716 L9.15181818,3.12611729 C8.92272727,2.97131491 8.63,2.95823302 8.39030303,3.09123225 C8.14848485,3.22423147 8,3.48368898 8,3.76494963 L8,11.2347094 C8,11.51597 8.15060606,11.7732472 8.39030303,11.9084268 C8.50060606,11.9694756 8.62151515,12 8.74242424,12 C8.88454545,12 9.02878788,11.958574 9.15181818,11.8735417 L14.6648485,8.13866185 C14.8727273,7.99694136 15,7.75710669 15,7.49982951 C14.9978788,7.24255232 14.8727273,7.00271765 14.6648485,6.86099716 Z M8.875,11.1 L8.875,4.2843348 L14.125,7.6921674 L8.875,11.1 Z" id="Shape"></path>
                </g>
            </g>
            <g id="social-icons2-copy" transform="translate(0.000000, 44.000000)">
                <g id="Youtube" transform="translate(197.916667, 1.083333)" fill="#000000" fill-rule="nonzero" stroke="#000000">
                    <circle id="Oval-Copy" cx="18.75" cy="18.75" r="18.75"></circle>
                </g>
                <g id="Deezer" transform="translate(131.250000, 0.000000)" fill="#000000" fill-rule="nonzero" stroke="#000000">
                    <circle id="Oval-Copy" cx="19.4172297" cy="19.4172297" r="19.4172297"></circle>
                </g>
                <g id="Soundcloud" transform="translate(263.000000, 1.000000)" fill="#000000" fill-rule="nonzero" stroke="#000000">
                    <circle id="Oval-Copy" cx="18.75" cy="18.75" r="18.75"></circle>
                </g>
                <g id="Spotify" transform="translate(0.000000, 1.083333)">
                    <circle id="Oval" stroke="#000000" fill="#000000" fill-rule="nonzero" cx="18.75" cy="18.75" r="18.75"></circle>
                    <path d="M7.95454538,12.5757578 C11.560606,10.9595962 16.0151514,10.9595962 21.3181818,12.5757578 C26.621212,14.1919194 30.121212,16.818182 31.8181818,20.4545457" id="Path-2" stroke="#FFFFFF" stroke-width="1.5" transform="translate(19.886364, 15.909091) rotate(-7.000000) translate(-19.886364, -15.909091) "></path>
                    <path d="M10.2272726,17.9545455 C12.8030302,16.7424243 15.9848483,16.7424243 19.7727271,17.9545455 C23.5606059,19.1666667 26.0606059,21.1363635 27.2727272,23.8636365" id="Path-2-Copy" stroke="#FFFFFF" stroke-width="1.5" transform="translate(18.750000, 20.454546) rotate(-7.000000) translate(-18.750000, -20.454546) "></path>
                    <path d="M10.1829231,23.9798315 C12.6619653,22.858093 15.7243114,22.858093 19.3699616,23.9798315 C23.0156118,25.1015701 25.421741,26.9243952 26.588349,29.4483069" id="Path-2-Copy-2" stroke="#FFFFFF" stroke-width="1.5" transform="translate(18.385636, 26.293417) rotate(-7.000000) translate(-18.385636, -26.293417) "></path>
                </g>
                <circle id="Oval-Copy" stroke="#000000" fill="#000000" fill-rule="nonzero" cx="85.75" cy="19.8333333" r="18.75"></circle>
                <g id="noun_Music-Note_677344_000000" transform="translate(76.000000, 10.333333)" fill="#FFFFFF" fill-rule="nonzero">
                    <path d="M3.96025471,20.5615942 C6.14398839,20.5615942 7.92050943,19.1219642 7.92050943,17.3499493 L7.92050943,7.96906704 L15.080292,6.46380699 L15.080292,11.8518335 L14.8878728,11.8518335 C12.7041391,11.8518335 10.9276181,13.2914634 10.9276181,15.0634783 C10.9276181,16.8354934 12.7041391,18.2751232 14.8878728,18.2751232 C17.0716065,18.2751232 18.8481275,16.8354934 18.8481275,15.0634783 L18.8481275,1.42086823 C18.8485041,0.988661028 18.6399873,0.580018293 18.2820572,0.311506389 C17.926152,0.0422579382 17.4604051,-0.0597413028 17.0156707,0.0341659283 L5.59134267,2.43496044 C4.75008494,2.60846994 4.15083658,3.31393895 4.15267386,4.12864266 L4.15267386,14.1446558 L3.96025471,14.1446558 C1.77652104,14.1446558 0,15.5842856 0,17.3563006 C0,19.1283157 1.77652104,20.5615942 3.96025471,20.5615942 Z M3.96025471,15.4106832 C4.20107598,15.4102488 4.44120466,15.4351004 4.67623297,15.4847818 C4.87533722,15.5272701 5.08405567,15.4817299 5.24339233,15.3610335 C5.40272899,15.2403371 5.49537127,15.0575987 5.49513309,14.8644707 L5.49513309,4.14134527 C5.49247245,3.92038152 5.65571168,3.72863781 5.88444626,3.68405108 L17.2953497,1.28325655 C17.3439153,1.27043316 17.3960406,1.28157038 17.4340705,1.31289599 C17.4714739,1.34108958 17.4929582,1.38409272 17.4922437,1.42933664 L17.4922437,15.0592442 C17.4922437,16.128381 16.3175919,17.0006274 14.8744482,17.0006274 C13.4313045,17.0006274 12.2566527,16.1304981 12.2566527,15.0592442 C12.2566527,13.9879902 13.449204,13.1178609 14.8833979,13.1178609 C15.1242133,13.1175307 15.3643299,13.142381 15.5993762,13.1919595 C15.7984804,13.2344479 16.0071989,13.1889076 16.1665356,13.0682113 C16.3258722,12.9475148 16.4185145,12.7647764 16.4182763,12.5716484 L16.4182763,5.67201055 C16.4183621,5.47934591 16.3260187,5.29705939 16.1672344,5.1764519 C16.0084502,5.05584443 15.800392,5.00995542 15.6016136,5.05169945 L7.09937187,6.83853416 C6.79207099,6.90306818 6.57344282,7.16099589 6.57357534,7.45884528 L6.57357534,17.3520664 C6.57357534,18.4212034 5.39892352,19.2934497 3.95577984,19.2934497 C2.51263618,19.2934497 1.33798436,18.4233203 1.33798436,17.3520664 C1.33798436,16.2808124 2.51711104,15.4106832 3.96025471,15.4106832 Z" id="Shape"></path>
                </g>
                <g id="soundcloud-social-outlined-logotype-symbol" transform="translate(270.000000, 14.000000)" fill="#FFFFFF" fill-rule="nonzero">
                    <path d="M18.7908811,4.97589255 C18.7651066,4.97340799 18.7404106,4.97045532 18.7166851,4.96797076 C18.3719471,2.15080208 16.0269019,0 13.2099719,0 C12.2069245,0 10.6532669,0.491006968 9.93409815,0.929982176 L9.69716716,1.07466287 L9.69716716,11.9762346 L18.9234201,12 C20.5334436,12 22,10.2728337 22,8.37621302 C21.9999641,6.59553859 20.6506329,5.16565544 18.7908811,4.97589255 Z M18.9243906,11.0090921 L10.6863747,10.9853267 L10.6863747,1.64740831 C11.3461939,1.32484742 12.4897966,0.990907945 13.2099719,0.990907945 C15.6356477,0.990907945 17.6358829,2.94154079 17.7640363,5.43168356 L17.7857487,5.81765479 L18.1641337,5.8924797 C18.1641337,5.8924797 18.3278393,5.92420287 18.6899041,5.96183137 C20.0560587,6.10057073 21.009714,7.09345912 21.009714,8.37570891 C21.0107206,9.70455323 19.9774412,11.0085879 18.9243906,11.0090921 Z M8.40862352,1.0013143 C8.13560109,1.0013143 7.9139838,1.22280035 7.9139838,1.49678627 L7.9139838,11.4059377 C7.9139838,11.6799237 8.13556514,11.9014097 8.40862352,11.9014097 C8.68168189,11.9014097 8.90326323,11.6799597 8.90326323,11.4059377 L8.90326323,1.49678627 C8.90326323,1.22330447 8.68168189,1.0013143 8.40862352,1.0013143 Z M6.43013655,1.99225825 C6.15711412,1.99225825 5.93549684,2.21374431 5.93549684,2.48773023 L5.93549684,11.4059738 C5.93549684,11.6799597 6.15707817,11.9014457 6.43013655,11.9014457 C6.70319493,11.9014457 6.92477627,11.6799957 6.92477627,11.4059738 L6.92477627,2.48769422 C6.92477627,2.21421241 6.70315898,1.99225825 6.43013655,1.99225825 Z M4.45164959,1.99225825 C4.17862716,1.99225825 3.95700987,2.21374431 3.95700987,2.48773023 L3.95700987,11.4059738 C3.95700987,11.6799597 4.17859121,11.9014457 4.45164959,11.9014457 C4.72470797,11.9014457 4.9462893,11.6799957 4.9462893,11.4059738 L4.9462893,2.48769422 C4.94625336,2.21421241 4.72467202,1.99225825 4.45164959,1.99225825 Z M2.47312668,3.97407414 C2.20010425,3.97407414 1.97848696,4.1955602 1.97848696,4.46954612 L1.97848696,11.4059738 C1.97848696,11.6799597 2.2000683,11.9014457 2.47312668,11.9014457 C2.74618506,11.9014457 2.96776639,11.6799957 2.96776639,11.4059738 L2.96776639,4.46954612 C2.96776639,4.1960283 2.74614911,3.97407414 2.47312668,3.97407414 Z M0.494639715,5.46045406 C0.221617285,5.46045406 0,5.68194012 0,5.95592604 L0,10.4150298 C0,10.6889797 0.221581337,10.9105018 0.494639715,10.9105018 C0.767698092,10.9105018 0.989279429,10.6890157 0.989279429,10.4150298 L0.989279429,5.95589003 C0.989243482,5.68240822 0.767662144,5.46045406 0.494639715,5.46045406 Z" id="Shape"></path>
                </g>
                <g id="deezer-logo" transform="translate(139.000000, 12.000000)" fill="#FFFFFF" fill-rule="nonzero">
                    <rect id="Rectangle-path" x="0" y="12.898541" width="4.37357334" height="1.32545899"></rect>
                    <rect id="Rectangle-path" x="0" y="11.1756405" width="4.37357334" height="1.32594936"></rect>
                    <rect id="Rectangle-path" x="0" y="9.45273993" width="4.37357334" height="1.32594936"></rect>
                    <rect id="Rectangle-path" x="0" y="7.72959421" width="4.37357334" height="1.32521381"></rect>
                    <rect id="Rectangle-path" x="0" y="6.00669367" width="4.37357334" height="1.32496862"></rect>
                    <rect id="Rectangle-path" x="4.90390404" y="12.898541" width="4.3740637" height="1.32545899"></rect>
                    <rect id="Rectangle-path" x="4.90390404" y="11.1756405" width="4.3740637" height="1.32594936"></rect>
                    <rect id="Rectangle-path" x="4.90390404" y="9.45273993" width="4.3740637" height="1.32594936"></rect>
                    <rect id="Rectangle-path" x="9.80829845" y="12.898541" width="4.3740637" height="1.32545899"></rect>
                    <rect id="Rectangle-path" x="9.80829845" y="11.1756405" width="4.3740637" height="1.32594936"></rect>
                    <rect id="Rectangle-path" x="9.80829845" y="9.45273993" width="4.3740637" height="1.32594936"></rect>
                    <rect id="Rectangle-path" x="9.80829845" y="7.72959421" width="4.3740637" height="1.32521381"></rect>
                    <rect id="Rectangle-path" x="9.80829845" y="6.00669367" width="4.3740637" height="1.32496862"></rect>
                    <rect id="Rectangle-path" x="9.80829845" y="4.28330276" width="4.3740637" height="1.32545899"></rect>
                    <rect id="Rectangle-path" x="9.80829845" y="2.56040222" width="4.3740637" height="1.32570417"></rect>
                    <rect id="Rectangle-path" x="14.7122025" y="12.898541" width="4.37430889" height="1.32545899"></rect>
                    <rect id="Rectangle-path" x="14.7122025" y="11.1756405" width="4.37430889" height="1.32594936"></rect>
                    <rect id="Rectangle-path" x="14.7122025" y="9.45273993" width="4.37430889" height="1.32594936"></rect>
                    <rect id="Rectangle-path" x="14.7122025" y="7.72959421" width="4.37430889" height="1.32521381"></rect>
                    <rect id="Rectangle-path" x="14.7122025" y="6.00669367" width="4.37430889" height="1.32496862"></rect>
                    <rect id="Rectangle-path" x="19.6165969" y="12.898541" width="4.3740637" height="1.32545899"></rect>
                    <rect id="Rectangle-path" x="19.6165969" y="11.1756405" width="4.3740637" height="1.32594936"></rect>
                    <rect id="Rectangle-path" x="19.6165969" y="9.45224956" width="4.3740637" height="1.32545899"></rect>
                    <rect id="Rectangle-path" x="19.6165969" y="7.72959421" width="4.3740637" height="1.32545899"></rect>
                    <rect id="Rectangle-path" x="19.6165969" y="6.0062033" width="4.3740637" height="1.32570417"></rect>
                    <rect id="Rectangle-path" x="19.6165969" y="4.28354794" width="4.3740637" height="1.32496862"></rect>
                    <rect id="Rectangle-path" x="19.6165969" y="2.56015704" width="4.3740637" height="1.32496862"></rect>
                    <rect id="Rectangle-path" x="19.6165969" y="0.836766129" width="4.3740637" height="1.32545899"></rect>
                </g>
                <g id="9a2327a2fcc570914ce9c9e61581cbf8" transform="translate(206.000000, 13.000000)" fill="#FFFFFF" fill-rule="nonzero">
                    <path d="M17.3318029,0 L3.66605448,0 C1.64340373,0 0,1.62942008 0,3.6301273 L0,11.3698727 C0,13.3705799 1.64340373,15 3.66605448,15 L17.3339455,15 C19.3544536,15 21,13.3705799 21,11.3698727 L21,3.6301273 C20.9978574,1.62942008 19.3544536,0 17.3318029,0 Z M20.125,11.7920755 C20.125,13.0745937 19.0866278,14.1176471 17.8121577,14.1176471 L3.19013456,14.1176471 C1.91337223,14.1176471 0.875,13.0745937 0.875,11.7920755 L0.875,3.39238736 C0.875,2.10986919 1.91337223,1.06681581 3.19013456,1.06681581 L17.8121577,1.06681581 C19.08892,1.06681581 20.125,2.10986919 20.125,3.39238736 L20.125,11.7920755 Z" id="Shape"></path>
                    <path d="M14.6648485,6.86099716 L9.15181818,3.12611729 C8.92272727,2.97131491 8.63,2.95823302 8.39030303,3.09123225 C8.14848485,3.22423147 8,3.48368898 8,3.76494963 L8,11.2347094 C8,11.51597 8.15060606,11.7732472 8.39030303,11.9084268 C8.50060606,11.9694756 8.62151515,12 8.74242424,12 C8.88454545,12 9.02878788,11.958574 9.15181818,11.8735417 L14.6648485,8.13866185 C14.8727273,7.99694136 15,7.75710669 15,7.49982951 C14.9978788,7.24255232 14.8727273,7.00271765 14.6648485,6.86099716 Z M8.875,11.1 L8.875,4.2843348 L14.125,7.6921674 L8.875,11.1 Z" id="Shape"></path>
                </g>
            </g>
        </g>
    </g>
</svg>